<?xml version="1.0" encoding="iso-8859-1"?>
<!-- Uploaded to: SVG Repo, www.svgrepo.com, Generator: SVG Repo Mixer Tools -->
<svg fill="#000000" height="800px" width="800px" version="1.1" id="Layer_1" xmlns="http://www.w3.org/2000/svg" xmlns:xlink="http://www.w3.org/1999/xlink" 
	 viewBox="0 0 512 512" xml:space="preserve">
<g>
	<g>
		<g>
			<path d="M405.33,128c29.397,0,53.333-23.936,53.333-53.333s-23.915-53.333-53.333-53.333c-29.397,0-53.333,23.936-53.333,53.333
				S375.933,128,405.33,128z M405.33,42.667c17.643,0,32,14.357,32,32c0,17.643-14.336,32-32,32c-17.643,0-32-14.357-32-32
				C373.33,57.024,387.709,42.667,405.33,42.667z"/>
			<path d="M498.237,305.387l-13.675-109.312c-3.307-26.645-26.069-46.72-52.907-46.72h-52.672c-5.931,0-11.904,1.045-17.771,3.136
				c-5.547,1.963-8.448,8.064-6.485,13.611c1.984,5.547,8.064,8.469,13.611,6.485c3.563-1.259,7.147-1.899,10.645-1.899h52.672
				c16.107,0,29.739,12.053,31.744,28.032l13.675,109.312c0.384,3.072-0.533,6.059-2.581,8.384s-4.885,3.605-8,3.605h-7.829
				c-5.611,0-10.24,4.309-10.645,9.899l-9.963,139.435h-65.472l-7.68-107.456c-0.405-5.867-5.568-10.475-11.392-9.877
				c-5.867,0.405-10.304,5.525-9.877,11.392l8.384,117.355c0.427,5.568,5.077,9.899,10.645,9.899h85.333
				c5.589,0,10.24-4.331,10.624-9.877l9.963-139.499c8.405-0.555,16.277-4.395,21.888-10.752
				C496.551,323.648,499.389,314.496,498.237,305.387z"/>
			<path d="M158.333,354.453c-5.952-0.555-10.965,4.011-11.392,9.877l-7.509,105.003H73.938l-9.941-139.435
				C63.591,324.331,58.941,320,53.33,320h-7.829c-3.115,0-5.952-1.28-8-3.605c-2.048-2.325-2.965-5.291-2.581-8.384l13.675-109.312
				c1.984-15.979,15.616-28.032,31.744-28.032h52.672c2.389,0,4.928,0.363,8.043,1.195c5.696,1.408,11.541-1.92,13.035-7.616
				c1.493-5.696-1.92-11.541-7.616-13.035c-4.928-1.28-9.195-1.877-13.483-1.877H80.338c-26.837,0-49.579,20.075-52.907,46.72
				L13.757,305.365c-1.131,9.109,1.685,18.261,7.765,25.152c5.611,6.357,13.483,10.197,21.888,10.752l9.963,139.499
				c0.405,5.568,5.056,9.899,10.624,9.899h85.333c5.589,0,10.24-4.331,10.645-9.899l8.213-114.923
				C168.615,359.979,164.178,354.88,158.333,354.453z"/>
			<path d="M106.663,128c29.397,0,53.333-23.936,53.333-53.333s-23.915-53.333-53.333-53.333c-29.397,0-53.333,23.936-53.333,53.333
				S77.266,128,106.663,128z M106.663,42.667c17.643,0,32,14.357,32,32c0,17.643-14.336,32-32,32c-17.621,0-32-14.357-32-32
				C74.663,57.024,89.042,42.667,106.663,42.667z"/>
			<path d="M349.927,303.723l-14.144-123.904c-3.349-29.547-26.752-51.819-54.4-51.819h-54.464
				c-27.605,0-50.987,22.272-54.357,51.819l-14.144,123.904c-1.173,10.368,2.027,20.672,8.768,28.224
				c5.824,6.507,13.525,10.304,21.909,10.773l11.776,159.403c0.405,5.568,5.056,9.877,10.624,9.877h85.333
				c5.589,0,10.24-4.309,10.624-9.877l11.776-159.403c8.363-0.469,16.085-4.245,21.909-10.773
				C347.922,324.373,351.101,314.091,349.927,303.723z M325.266,317.739c-1.237,1.365-3.883,3.691-7.808,3.691h-8.128
				c-5.589,0-10.24,4.309-10.645,9.877l-11.755,159.36h-65.515l-11.733-159.36c-0.427-5.568-5.056-9.877-10.645-9.877h-8.107
				c-3.904,0-6.571-2.325-7.808-3.691c-2.709-3.051-3.989-7.275-3.499-11.605l14.144-123.904
				c2.133-18.752,16.405-32.896,33.195-32.896h54.464c16.768,0,31.04,14.144,33.195,32.896l14.144,123.904
				C329.255,310.464,327.975,314.688,325.266,317.739z"/>
			<path d="M254.162,106.667c29.397,0,53.333-23.936,53.333-53.333S283.581,0,254.162,0c-29.397,0-53.333,23.936-53.333,53.333
				S224.765,106.667,254.162,106.667z M254.162,21.333c17.643,0,32,14.357,32,32c0,17.643-14.357,32-32,32
				c-17.643,0-32-14.357-32-32C222.162,35.691,236.541,21.333,254.162,21.333z"/>
		</g>
	</g>
</g>
</svg>